# xmcd
# 
# Track frame offsets:
#     150
#     23027
#     43016
#     63318
#     80758
#     102660
#     124337
#     146564
#     169616
#     192830
#     213570
#     237607
#     257224
#     279221
#     300035
#     330350
# 
# Disc length: 4416
# 
# Revision: 0
# Processed by: cddbd v1.5.2PL0 Copyright (c) Steve Scherf et al.
# Submitted via: BonkEnc v1.0.6
# 
DISCID=e2113e10
DTITLE=モーニング娘。 - ベスト! モーニング娘。1
DYEAR=2001
DGENRE=JPop
TTITLE0=LOVEマシーン
TTITLE1=抱いて HOLD ON ME!
TTITLE2=恋のダンスサイト
TTITLE3=サマーナイトタウン
TTITLE4=ハッピーサマーウェディング
TTITLE5=I WISH
TTITLE6=恋愛レボリューション21
TTITLE7=Memory 青春の光
TTITLE8=真夏の光線
TTITLE9=モーニングコーヒー
TTITLE10=ふるさと
TTITLE11=Say Yeah! ―もっとミラクルナイト―
TTITLE12=DANCEするのだ！
TTITLE13=Never Forget
TTITLE14=愛の種
TTITLE15=(DATA)
EXTD=YEAR: 2001
EXTT0=
EXTT1=
EXTT2=
EXTT3=
EXTT4=
EXTT5=
EXTT6=
EXTT7=
EXTT8=
EXTT9=
EXTT10=
EXTT11=
EXTT12=
EXTT13=
EXTT14=
EXTT15=
PLAYORDER=
